<?xml version="1.0" encoding="UTF-8"?>
<svg width="155px" height="37px" viewBox="0 0 155 37" version="1.1" xmlns="http://www.w3.org/2000/svg" xmlns:xlink="http://www.w3.org/1999/xlink">
    <!-- Generator: sketchtool 63.1 (101010) - https://sketch.com -->
    <title>B276EDC9-1D07-40A4-857B-BE875CF25913</title>
    <desc>Created with sketchtool.</desc>
    <defs>
        <polygon id="path-1" points="0 36.2745098 154.955947 36.2745098 154.955947 0.0622622183 0 0.0622622183"></polygon>
    </defs>
    <g id="Page-1" stroke="none" stroke-width="1" fill="none" fill-rule="evenodd">
        <g id="alice-care_web" transform="translate(-267.000000, -7213.000000)">
            <g id="Group-12-Copy-7" transform="translate(267.000000, 7213.000000)">
                <path d="M7.24769492,9 L0,28 L4.61964014,28 L6.05209919,23.744693 L11.9199714,23.744693 L13.3803599,28 L18,28 L10.7786232,9 L7.24769492,9 Z M8.99973145,13.6559339 L11.1760809,20.7210429 L6.74281622,20.7210429 L8.99973145,13.6559339 Z" id="Fill-1" fill="#FEFEFE"></path>
                <g id="Group-11">
                    <path d="M19.9488807,7.63697542 L24.2502667,7.63697542 L24.2502667,21.927508 C24.2502667,22.9708063 24.7343018,23.5327905 25.647986,23.5327905 C26.0515298,23.5327905 26.6160561,23.3725329 27.0462491,23.1586757 L27.6107754,26.6107097 C26.5350211,27.0925651 25.0035123,27.4136216 23.8206175,27.4136216 C21.3471439,27.4136216 19.9488807,26.075796 19.9488807,23.6670603 L19.9488807,7.63697542 Z" id="Fill-2" fill="#FEFEFE"></path>
                    <mask id="mask-2" fill="white">
                        <use xlink:href="#path-1"></use>
                    </mask>
                    <g id="Clip-5"></g>
                    <path d="M29.628386,27.1728563 L33.9292281,27.1728563 L33.9292281,13.12271 L29.628386,13.12271 L29.628386,27.1728563 Z M29.628386,11.5174276 L33.9292281,11.5174276 L33.9292281,7.63713784 L29.628386,7.63713784 L29.628386,11.5174276 Z" id="Fill-4" fill="#FEFEFE" mask="url(#mask-2)"></path>
                    <path d="M44.1453053,12.8554697 C47.3714807,12.8554697 49.6567789,14.3806234 50.7586386,16.5749605 L46.5649368,17.8326573 C46.0276035,16.9766872 45.1672175,16.4948317 44.1186561,16.4948317 C42.3440421,16.4948317 40.9740596,17.940398 40.9740596,20.1341937 C40.9740596,22.3556014 42.3712351,23.8276968 44.1186561,23.8276968 C45.1944105,23.8276968 46.1619368,23.2657126 46.5921298,22.4357302 L50.7858316,23.7204975 C49.7367263,25.8877641 47.3986737,27.4405297 44.1453053,27.4405297 C39.3881649,27.4405297 36.5649895,24.0150249 36.5649895,20.1341937 C36.5649895,16.253904 39.3604281,12.8554697 44.1453053,12.8554697" id="Fill-6" fill="#FEFEFE" mask="url(#mask-2)"></path>
                    <path d="M62.9923807,18.8228973 C62.8313982,17.0568159 61.5952053,15.9328475 59.9549246,15.9328475 C58.2885386,15.9328475 57.0789947,17.083345 56.9174684,18.8228973 L62.9923807,18.8228973 Z M52.427907,20.2949927 C52.427907,16.253904 55.1966965,12.8554697 60.0093105,12.8554697 C64.820293,12.8554697 67.5357842,16.2809745 67.5357842,20.1076646 C67.5357842,20.6160492 67.482486,21.1244337 67.4281,21.4725607 L56.9985035,21.4725607 C57.1328368,23.3458414 58.5843982,24.3626105 60.1431,24.3626105 C61.406486,24.3626105 62.7242579,23.6939684 63.126714,22.6771993 L66.7830825,23.6939684 C65.6806789,25.8877641 63.2615912,27.4405297 60.0093105,27.4405297 C55.2510825,27.4405297 52.427907,24.0951536 52.427907,20.2949927 L52.427907,20.2949927 Z" id="Fill-7" fill="#FEFEFE" mask="url(#mask-2)"></path>
                    <path d="M105.177072,22.5966374 C105.177072,23.6134065 106.064107,24.3627188 107.273651,24.3627188 C108.187879,24.3627188 109.155405,24.0151332 109.720475,23.4791367 C110.096282,23.1851507 110.3383,22.811036 110.3383,22.4623676 L110.3383,21.124542 C109.585598,20.8570852 108.645265,20.6692157 107.892019,20.6692157 C106.333318,20.6692157 105.177072,21.472669 105.177072,22.5966374" id="Fill-8" fill="#FEFEFE" mask="url(#mask-2)"></path>
                    <path d="M136.418219,15.932631 C134.751833,15.932631 133.542289,17.0831285 133.380763,18.8226807 L139.455675,18.8226807 C139.294693,17.0565994 138.0585,15.932631 136.418219,15.932631" id="Fill-9" fill="#FEFEFE" mask="url(#mask-2)"></path>
                    <path d="M143.891504,21.4725607 L133.461363,21.4725607 C133.595696,23.3458414 135.047258,24.3626105 136.60596,24.3626105 C137.869889,24.3626105 139.187118,23.6939684 139.590118,22.6771993 L143.245942,23.6939684 C142.144082,25.8877641 139.724995,27.4405297 136.47217,27.4405297 C131.713942,27.4405297 128.891311,24.0951536 128.891311,20.2949927 C128.891311,16.253904 131.6601,12.8554697 136.47217,12.8554697 C141.283696,12.8554697 143.999188,16.2809745 143.999188,20.1076646 C143.999188,20.6160492 143.945889,21.1244337 143.891504,21.4725607 L143.891504,21.4725607 Z M127.330977,16.7893591 C125.260504,16.8158882 123.460328,17.4585426 122.680433,18.7427685 L122.680433,27.1725315 L118.379047,27.1725315 L118.379047,13.1229265 L122.330732,13.1229265 L122.330732,15.9593766 C123.325995,14.0866374 124.937995,12.962669 126.658767,12.9090694 C127.035118,12.9090694 127.196644,12.9090694 127.330977,12.9355985 L127.330977,16.7893591 Z M115.741328,27.1725315 C114.935328,27.3333304 114.209275,27.3869301 113.671942,27.3869301 C112.112696,27.3604009 111.306153,26.7448171 111.091328,25.5937782 L111.010837,24.9516652 C109.747451,26.557489 107.945644,27.4405297 106.010591,27.4405297 C103.214609,27.4405297 101.11803,25.5136494 101.11803,22.9711853 C101.11803,20.2148639 103.618153,18.2879836 107.166293,18.2879836 C108.348644,18.2879836 109.504889,18.5018408 110.338626,18.8764969 L110.338626,18.234384 C110.338626,16.6556307 109.424398,15.7991191 107.515995,15.7991191 C105.983398,15.7991191 104.639521,16.3345742 103.107468,17.3513433 L101.844082,14.6751507 C103.698644,13.4710536 105.688082,12.8554697 107.945644,12.8554697 C112.193732,12.8554697 114.639468,14.9160784 114.639468,18.7427685 L114.639468,22.3556014 C114.639468,23.212113 114.908679,23.5060989 115.741328,23.5596986 L115.741328,27.1725315 Z M91.9213632,27.3333304 C86.6258018,27.3333304 82.889486,22.3821305 82.889486,17.5121422 C82.889486,12.9090694 86.2761,8.06506877 92.0828895,8.06506877 C95.4705912,8.06506877 98.1045035,9.75102136 99.3140474,12.2128153 L95.9274333,14.5684928 C95.1469947,12.5609423 93.3729246,11.9718876 91.9757491,11.9718876 C88.8572579,11.9718876 87.3785035,14.9160784 87.3785035,17.6718584 C87.3785035,20.6961779 89.2064158,23.4265116 92.0295912,23.4265116 C93.4811526,23.4265116 95.2280298,22.7037284 95.9274333,20.8033772 L99.5560649,22.9170442 C98.4270123,25.728048 94.932714,27.3333304 91.9213632,27.3333304 L91.9213632,27.3333304 Z M74.4243105,0.0624787826 L74.4243105,36.274185 L143.954591,36.274185 C150.030591,36.274185 154.955784,31.3711706 154.955784,25.3230729 L154.955784,0.0624787826 L74.4243105,0.0624787826 Z" id="Fill-10" fill="#FEFEFE" mask="url(#mask-2)"></path>
                </g>
            </g>
        </g>
    </g>
</svg>