<?xml version="1.0" encoding="UTF-8"?>
<svg width="129px" height="129px" viewBox="0 0 129 129" version="1.1" xmlns="http://www.w3.org/2000/svg" xmlns:xlink="http://www.w3.org/1999/xlink">
    <!-- Generator: sketchtool 63.1 (101010) - https://sketch.com -->
    <title>94F1A5D2-69CE-4815-8CDB-8BE61AA6C6BE</title>
    <desc>Created with sketchtool.</desc>
    <g id="Page-1" stroke="none" stroke-width="1" fill="none" fill-rule="evenodd">
        <g id="alice-care_web" transform="translate(-514.000000, -3329.000000)">
            <g id="Group-8" transform="translate(514.000000, 3329.000000)">
                <circle id="Oval-Copy-3" fill="#F47D20" cx="64.5" cy="64.5" r="64.5"></circle>
                <g id="Group-4" transform="translate(40.000000, 21.000000)" fill="#FFFFFF">
                    <path d="M44.5535714,-6.39488462e-14 L6.96428571,-6.39488462e-14 C4.10714286,-6.39488462e-14 1.60714286,2.41071429 1.60714286,5.35714286 L1.60714286,12.0535714 C0.714285714,12.0535714 4.8316906e-13,12.7678571 4.8316906e-13,13.6607143 L4.8316906e-13,21.1607143 C4.8316906e-13,22.0535714 0.714285714,22.7678571 1.60714286,22.7678571 L1.60714286,25.1785714 C0.714285714,25.1785714 4.8316906e-13,25.8928571 4.8316906e-13,26.7857143 L4.8316906e-13,29.375 C4.8316906e-13,30.2678571 0.714285714,30.9821429 1.60714286,30.9821429 L1.60714286,82.5892857 C1.60714286,85.4464286 4.01785714,87.9464286 6.96428571,87.9464286 L21.3392857,87.9464286 C21.6071429,87.5892857 21.9642857,87.3214286 22.4107143,87.3214286 L29.0178571,87.3214286 C29.4642857,87.3214286 29.9107143,87.5892857 30.0892857,87.9464286 L44.4642857,87.9464286 C47.3214286,87.9464286 49.8214286,85.5357143 49.8214286,82.5892857 L49.8214286,5.35714286 C49.9107143,2.5 47.4107143,-6.39488462e-14 44.5535714,-6.39488462e-14 Z M47.1428571,82.5892857 C47.1428571,84.1071429 46.0714286,85.1785714 44.5535714,85.1785714 L6.96428571,85.1785714 C5.44642857,85.1785714 4.375,84.1071429 4.375,82.5892857 L4.375,5.35714286 C4.375,3.83928571 5.44642857,2.76785714 6.96428571,2.76785714 L12.2321429,2.76785714 L12.4107143,6.96428571 C12.4107143,7.85714286 13.125,8.48214286 13.9285714,8.48214286 L37.5,8.48214286 C38.3928571,8.48214286 39.0178571,7.76785714 39.0178571,6.96428571 L39.2857143,2.76785714 L44.5535714,2.76785714 C46.0714286,2.76785714 47.1428571,3.83928571 47.1428571,5.35714286 L47.1428571,82.5892857 L47.1428571,82.5892857 Z" id="Shape" fill-rule="nonzero"></path>
                    <path d="M34.8928571,39 L10.25,39 C9.53571429,39 9,39.5357143 9,40.25 C9,40.9642857 9.53571429,41.5 10.25,41.5 L34.9821429,41.5 C35.6964286,41.5 36.2321429,40.9642857 36.2321429,40.25 C36.1428571,39.5357143 35.6071429,39 34.8928571,39 Z" id="Path" fill-rule="nonzero"></path>
                    <circle id="Oval" cx="16" cy="25" r="7"></circle>
                    <path d="M28.9672131,47.5 L9.96393443,47.5 C9.41311475,47.5 9,48.0357143 9,48.75 C9,49.4642857 9.41311475,50 9.96393443,50 L29.0360656,50 C29.5868852,50 30,49.4642857 30,48.75 C29.9311475,48.0357143 29.5180328,47.5 28.9672131,47.5 Z" id="Path-Copy" fill-rule="nonzero"></path>
                    <path d="M32.7704918,56 L10.147541,56 C9.49180328,56 9,56.5357143 9,57.25 C9,57.9642857 9.49180328,58.5 10.147541,58.5 L32.852459,58.5 C33.5081967,58.5 34,57.9642857 34,57.25 C33.9180328,56.5357143 33.4262295,56 32.7704918,56 Z" id="Path-Copy-2" fill-rule="nonzero"></path>
                    <path d="M28.9672131,64.5 L9.96393443,64.5 C9.41311475,64.5 9,65.0357143 9,65.75 C9,66.4642857 9.41311475,67 9.96393443,67 L29.0360656,67 C29.5868852,67 30,66.4642857 30,65.75 C29.9311475,65.0357143 29.5180328,64.5 28.9672131,64.5 Z" id="Path-Copy-3" fill-rule="nonzero"></path>
                </g>
            </g>
        </g>
    </g>
</svg>