<?xml version="1.0" encoding="UTF-8"?>
<svg width="129px" height="129px" viewBox="0 0 129 129" version="1.1" xmlns="http://www.w3.org/2000/svg" xmlns:xlink="http://www.w3.org/1999/xlink">
    <!-- Generator: sketchtool 63.1 (101010) - https://sketch.com -->
    <title>22882BF9-5F11-4B49-928A-1A632668661F</title>
    <desc>Created with sketchtool.</desc>
    <g id="Page-1" stroke="none" stroke-width="1" fill="none" fill-rule="evenodd">
        <g id="alice-care_web" transform="translate(-514.000000, -3564.000000)">
            <g id="Group-9" transform="translate(514.000000, 3564.000000)">
                <circle id="Oval-Copy-4" fill="#F47D20" cx="64.5" cy="64.5" r="64.5"></circle>
                <g id="Group-5" transform="translate(40.000000, 21.000000)" fill="#FFFFFF" fill-rule="nonzero">
                    <path d="M41.1194237,28 L23.9259811,28 C23.4276205,28 23.05385,28.5357143 23.05385,29.25 C23.05385,29.9642857 23.4276205,30.5 23.9259811,30.5 L41.1817188,30.5 C41.6800795,30.5 42.05385,29.9642857 42.05385,29.25 C41.9915549,28.5357143 41.6177844,28 41.1194237,28 Z" id="Path-Copy-4"></path>
                    <path d="M41.1194237,40.1714135 L23.9259811,40.1714135 C23.4276205,40.1714135 23.05385,40.7071278 23.05385,41.4214135 C23.05385,42.1356992 23.4276205,42.6714135 23.9259811,42.6714135 L41.1817188,42.6714135 C41.6800795,42.6714135 42.05385,42.1356992 42.05385,41.4214135 C41.9915549,40.7071278 41.6177844,40.1714135 41.1194237,40.1714135 Z" id="Path-Copy-5"></path>
                    <path d="M41.1194237,52.1714135 L23.9259811,52.1714135 C23.4276205,52.1714135 23.05385,52.7071278 23.05385,53.4214135 C23.05385,54.1356992 23.4276205,54.6714135 23.9259811,54.6714135 L41.1817188,54.6714135 C41.6800795,54.6714135 42.05385,54.1356992 42.05385,53.4214135 C41.9915549,52.7071278 41.6177844,52.1714135 41.1194237,52.1714135 Z" id="Path-Copy-6"></path>
                    <path d="M44.5535714,-6.39488462e-14 L6.96428571,-6.39488462e-14 C4.10714286,-6.39488462e-14 1.60714286,2.41071429 1.60714286,5.35714286 L1.60714286,12.0535714 C0.714285714,12.0535714 -4.26325641e-13,12.7678571 -4.26325641e-13,13.6607143 L-4.26325641e-13,21.1607143 C-4.26325641e-13,22.0535714 0.714285714,22.7678571 1.60714286,22.7678571 L1.60714286,25.1785714 C0.714285714,25.1785714 -4.26325641e-13,25.8928571 -4.26325641e-13,26.7857143 L-4.26325641e-13,29.375 C-4.26325641e-13,30.2678571 0.714285714,30.9821429 1.60714286,30.9821429 L1.60714286,82.5892857 C1.60714286,85.4464286 4.01785714,87.9464286 6.96428571,87.9464286 L21.3392857,87.9464286 C21.6071429,87.5892857 21.9642857,87.3214286 22.4107143,87.3214286 L29.0178571,87.3214286 C29.4642857,87.3214286 29.9107143,87.5892857 30.0892857,87.9464286 L44.4642857,87.9464286 C47.3214286,87.9464286 49.8214286,85.5357143 49.8214286,82.5892857 L49.8214286,5.35714286 C49.9107143,2.5 47.4107143,-6.39488462e-14 44.5535714,-6.39488462e-14 Z M47.1428571,82.5892857 C47.1428571,84.1071429 46.0714286,85.1785714 44.5535714,85.1785714 L6.96428571,85.1785714 C5.44642857,85.1785714 4.375,84.1071429 4.375,82.5892857 L4.375,5.35714286 C4.375,3.83928571 5.44642857,2.76785714 6.96428571,2.76785714 L12.2321429,2.76785714 L12.4107143,6.96428571 C12.4107143,7.85714286 13.125,8.48214286 13.9285714,8.48214286 L37.5,8.48214286 C38.3928571,8.48214286 39.0178571,7.76785714 39.0178571,6.96428571 L39.2857143,2.76785714 L44.5535714,2.76785714 C46.0714286,2.76785714 47.1428571,3.83928571 47.1428571,5.35714286 L47.1428571,82.5892857 L47.1428571,82.5892857 Z" id="Shape"></path>
                </g>
                <polygon id="Path-6" fill="#FFFFFF" fill-rule="nonzero" points="61.2837083 45.6464466 61.9908151 46.3535534 56.361412 51.9829565 53.7039298 49.5587293 54.3778702 48.8199435 56.33 50.6"></polygon>
                <polygon id="Path-8" fill="#FFFFFF" fill-rule="nonzero" points="57.8390809 46.3285865 57.8390809 47.3285865 51.5 47.328 51.5 53.031 57.339 53.031 57.3390809 52.0725009 58.3390809 52.0725009 58.3390809 54.0311368 50.5 54.0311368 50.5 46.3285865"></polygon>
                <path d="M58.3390809,58.5 L50.5,58.5 L50.5,66.2025503 L58.3390809,66.2025503 L58.3390809,58.5 Z M57.339,59.5 L57.339,65.202 L51.5,65.202 L51.5,59.5 L57.339,59.5 Z" id="Path-8-Copy" fill="#FFFFFF" fill-rule="nonzero"></path>
                <path d="M58.3390809,70.5 L50.5,70.5 L50.5,78.2025503 L58.3390809,78.2025503 L58.3390809,70.5 Z M57.339,71.5 L57.339,77.202 L51.5,77.202 L51.5,71.5 L57.339,71.5 Z" id="Path-8-Copy-2" fill="#FFFFFF" fill-rule="nonzero"></path>
                <path d="" id="Path-7" stroke="#D5D5D5"></path>
            </g>
        </g>
    </g>
</svg>