<?xml version="1.0" encoding="UTF-8"?>
<svg width="129px" height="129px" viewBox="0 0 129 129" version="1.1" xmlns="http://www.w3.org/2000/svg" xmlns:xlink="http://www.w3.org/1999/xlink">
    <!-- Generator: sketchtool 63.1 (101010) - https://sketch.com -->
    <title>C8EE5B74-4E4C-4377-8A5B-3DCF109CF6FD</title>
    <desc>Created with sketchtool.</desc>
    <g id="Page-1" stroke="none" stroke-width="1" fill="none" fill-rule="evenodd">
        <g id="alice-care_web" transform="translate(-514.000000, -4046.000000)">
            <g id="Group-12" transform="translate(514.000000, 4046.000000)">
                <circle id="Oval-Copy-6" fill="#F47D20" cx="64.5" cy="64.5" r="64.5"></circle>
                <g id="Group-7" transform="translate(40.000000, 21.000000)" fill="#FFFFFF" fill-rule="nonzero">
                    <path d="M44.711179,0 L6.98892177,0 C4.12167181,0 1.6128281,2.41218274 1.6128281,5.36040609 L1.6128281,12.0609137 C0.716812489,12.0609137 0,12.7756345 0,13.6690355 L0,21.1736041 C0,22.0670051 0.716812489,22.7817259 1.6128281,22.7817259 L1.6128281,25.1939086 C0.716812489,25.1939086 0,25.9086294 0,26.8020305 L0,29.3928934 C0,30.2862944 0.716812489,31.0010152 1.6128281,31.0010152 L1.6128281,82.6395939 C1.6128281,85.4984772 4.03207025,88 6.98892177,88 L21.4147731,88 C21.6835778,87.6426396 22.041984,87.3746193 22.4899918,87.3746193 L29.1205074,87.3746193 C29.5685152,87.3746193 30.016523,87.6426396 30.1957261,88 L44.6215774,88 C47.4888274,88 49.9976711,85.5878173 49.9976711,82.6395939 L49.9976711,5.36040609 C50.0872727,2.50152284 47.578429,0 44.711179,0 Z M47.3096243,82.6395939 C47.3096243,84.1583756 46.2344055,85.2304569 44.711179,85.2304569 L6.98892177,85.2304569 C5.46569523,85.2304569 4.3904765,84.1583756 4.3904765,82.6395939 L4.3904765,5.36040609 C4.3904765,3.84162437 5.46569523,2.76954315 6.98892177,2.76954315 L12.2754139,2.76954315 L12.454617,6.96852792 C12.454617,7.86192893 13.1714295,8.48730964 13.9778435,8.48730964 L37.6326557,8.48730964 C38.5286713,8.48730964 39.1558822,7.77258883 39.1558822,6.96852792 L39.4246869,2.76954315 L44.711179,2.76954315 C46.2344055,2.76954315 47.3096243,3.84162437 47.3096243,5.36040609 L47.3096243,82.6395939 L47.3096243,82.6395939 Z" id="Shape-Copy-2"></path>
                    <g id="Group-3" transform="translate(10.000000, 30.000000)">
                        <rect id="Rectangle" x="4.999875" y="20.00025" width="2.500125" height="2.5005"></rect>
                        <rect id="Rectangle" x="10.000125" y="20.00025" width="2.49975" height="2.5005"></rect>
                        <rect id="Rectangle" x="17.49975" y="20.00025" width="7.5" height="2.5005"></rect>
                        <path d="M27.499875,25.0005 L2.500125,25.0005 L2.500125,12.500625 L19.999875,12.500625 L19.999875,10.0005 L2.500125,10.0005 L2.500125,7.500375 L25.732125,7.502625 L22.5,10.732875 L24.267375,12.50025 L29.634,7.134 C30.12225,6.64575 30.12225,5.8545 29.635125,5.36625 L24.268875,-4.29878355e-13 L22.501125,1.767375 L25.732125,4.999875 L2.500125,4.999875 C1.125375,4.999875 -9.05941988e-14,6.12525 -9.05941988e-14,7.5 L-9.05941988e-14,25.0005 C-9.05941988e-14,26.37525 1.125375,27.50025 2.500125,27.50025 L27.499875,27.50025 C28.87425,27.50025 30,26.37525 30,25.0005 L30,12.500625 L27.499875,12.500625 L27.499875,25.0005 Z" id="Path"></path>
                    </g>
                </g>
            </g>
        </g>
    </g>
</svg>