<?xml version="1.0" encoding="UTF-8"?>
<svg width="129px" height="129px" viewBox="0 0 129 129" version="1.1" xmlns="http://www.w3.org/2000/svg" xmlns:xlink="http://www.w3.org/1999/xlink">
    <!-- Generator: sketchtool 63.1 (101010) - https://sketch.com -->
    <title>D86A0660-2535-4113-A3F9-430372E0BC69</title>
    <desc>Created with sketchtool.</desc>
    <g id="Page-1" stroke="none" stroke-width="1" fill="none" fill-rule="evenodd">
        <g id="alice-care_web" transform="translate(-514.000000, -3806.000000)">
            <g id="Group-10" transform="translate(514.000000, 3806.000000)">
                <circle id="Oval-Copy-5" fill="#F47D20" cx="64.5" cy="64.5" r="64.5"></circle>
                <g id="Group-6" transform="translate(40.000000, 21.000000)" fill="#FFFFFF" fill-rule="nonzero">
                    <path d="M44.711179,0 L6.98892177,0 C4.12167181,0 1.6128281,2.41218274 1.6128281,5.36040609 L1.6128281,12.0609137 C0.716812489,12.0609137 0,12.7756345 0,13.6690355 L0,21.1736041 C0,22.0670051 0.716812489,22.7817259 1.6128281,22.7817259 L1.6128281,25.1939086 C0.716812489,25.1939086 0,25.9086294 0,26.8020305 L0,29.3928934 C0,30.2862944 0.716812489,31.0010152 1.6128281,31.0010152 L1.6128281,82.6395939 C1.6128281,85.4984772 4.03207025,88 6.98892177,88 L21.4147731,88 C21.6835778,87.6426396 22.041984,87.3746193 22.4899918,87.3746193 L29.1205074,87.3746193 C29.5685152,87.3746193 30.016523,87.6426396 30.1957261,88 L44.6215774,88 C47.4888274,88 49.9976711,85.5878173 49.9976711,82.6395939 L49.9976711,5.36040609 C50.0872727,2.50152284 47.578429,0 44.711179,0 Z M47.3096243,82.6395939 C47.3096243,84.1583756 46.2344055,85.2304569 44.711179,85.2304569 L6.98892177,85.2304569 C5.46569523,85.2304569 4.3904765,84.1583756 4.3904765,82.6395939 L4.3904765,5.36040609 C4.3904765,3.84162437 5.46569523,2.76954315 6.98892177,2.76954315 L12.2754139,2.76954315 L12.454617,6.96852792 C12.454617,7.86192893 13.1714295,8.48730964 13.9778435,8.48730964 L37.6326557,8.48730964 C38.5286713,8.48730964 39.1558822,7.77258883 39.1558822,6.96852792 L39.4246869,2.76954315 L44.711179,2.76954315 C46.2344055,2.76954315 47.3096243,3.84162437 47.3096243,5.36040609 L47.3096243,82.6395939 L47.3096243,82.6395939 Z" id="Shape-Copy"></path>
                    <g id="Shape-2" transform="translate(7.000000, 32.000000)">
                        <path d="M34.9118531,9.72533435 L28.7578687,0.249248417 C28.6788453,0.127459354 28.5549234,0.0423109167 28.4128453,0.0121234167 C28.2707672,-0.0183375208 28.1233844,0.00917029167 28.0011031,0.0882484167 L24.5500484,2.32967029 C24.2969,2.49444373 24.2248219,2.83301404 24.3893219,3.08616248 L24.7661187,3.66634217 C23.2037515,4.52356873 21.6920797,4.51241248 20.6883453,4.34118592 C18.6242203,3.99003748 17.2783609,4.47976404 15.9755406,4.95319373 L15.583814,5.09445154 C15.5837594,5.09445154 15.5837594,5.09450623 15.5837594,5.09450623 L15.3431344,5.17959998 C14.4342828,5.13081873 12.9033062,4.93722498 12.3493219,4.59165467 C11.7652047,4.22710779 10.9435797,3.68242029 10.4414937,3.34674842 L10.6106969,3.08616248 C10.7751969,2.83301404 10.703064,2.49417029 10.4496969,2.32967029 L6.99836873,0.0882484167 C6.87685311,0.00922497917 6.72919686,-0.0182828333 6.58689998,0.0121234167 C6.4450953,0.0423109167 6.32095467,0.127459354 6.24187655,0.249248417 L0.088056234,9.72533435 C0.00930623405,9.84684998 -0.0182015785,9.9950531 0.011931234,10.1368031 C0.0420640465,10.2785531 0.127267172,10.4027484 0.249056234,10.4818265 L3.70038436,12.722975 C3.79225936,12.7828031 3.89556405,12.8110765 3.99761092,12.8110765 C4.17649373,12.8110765 4.35193123,12.7234672 4.45687655,12.5621937 L4.73758748,12.1299437 L6.4105328,13.2265922 L6.28414998,13.3184125 C5.45689217,13.9416312 5.29107967,15.1214047 5.91429842,15.9486625 C6.28092342,16.4351625 6.84037655,16.6931234 7.41098592,16.6931234 C7.81020467,16.6931234 8.21500155,16.5665765 8.56292342,16.30435 L8.57812655,16.2918812 C8.63817342,16.5216781 8.74120467,16.7440922 8.89274373,16.9451781 C9.26150155,17.4349047 9.8252203,17.6928656 10.3953375,17.6928656 C10.5400406,17.6928656 10.6842515,17.6702797 10.8267125,17.6365375 C10.8629156,17.9591937 10.9755719,18.2771469 11.1846422,18.5547953 C11.4858609,18.9547797 11.9259312,19.2132875 12.4236422,19.2832328 C12.5131109,19.2960297 12.6020328,19.3019359 12.6906812,19.3019359 C12.8910015,19.3019359 13.0879312,19.2696703 13.2756734,19.2077094 C13.3216656,19.5113344 13.4335015,19.8019437 13.6228844,20.0533422 C13.9916422,20.5430687 14.5553609,20.8010297 15.1254781,20.8010297 C15.4841734,20.8010297 15.8432515,20.6929672 16.1601656,20.4824203 L18.8777515,22.2686234 C19.1944469,22.4742484 19.5501344,22.571975 19.9020484,22.571975 C20.5205094,22.571975 21.1266656,22.2691703 21.4882047,21.713764 C21.698314,21.3901781 21.7952203,21.0254672 21.7908453,20.6657875 C21.8262281,20.6678109 21.8611734,20.6734437 21.896775,20.6734437 C22.0292281,20.6734437 22.1627203,20.6595531 22.2951734,20.6312797 C22.7891656,20.5260609 23.2121734,20.2360531 23.4856109,19.8146859 C23.695775,19.4911 23.7926265,19.126389 23.7882515,18.7667094 C23.8246734,18.7687875 23.8609859,18.7743656 23.8973531,18.7743656 C24.515814,18.7743656 25.1219703,18.4715609 25.4835094,17.9161547 C25.6883687,17.6000609 25.7921109,17.2377562 25.7870797,16.8681781 C25.8231734,16.8702562 25.8592672,16.8757797 25.8953062,16.8757797 C26.5132203,16.8757797 27.1199234,16.572975 27.4809156,16.0175687 C27.7543531,15.5956547 27.847814,15.0914906 27.7425953,14.5974984 C27.6788297,14.2981937 27.5403609,14.0304437 27.3530562,13.8007015 L29.0179625,12.7235219 C29.2716578,12.5595687 29.3442828,12.2209984 29.1803297,11.9673031 C29.0163765,11.7136078 28.6778062,11.6415297 28.4241109,11.8049359 L26.4396109,13.0889984 L22.8806031,10.7667484 C22.6280015,10.6014828 22.2893765,10.673014 22.1232906,10.925889 C21.9582437,11.178764 22.0298297,11.5176078 22.2824312,11.6826547 L26.3300719,14.3241156 C26.6969703,14.5622797 26.8016422,15.0546859 26.5634781,15.4215844 C26.3258062,15.7879359 25.8329078,15.8931547 25.4660094,15.6544437 L24.9314937,15.3073422 C24.9305094,15.3066859 24.9297437,15.3058109 24.9287594,15.3051547 L23.4115094,14.3203422 C23.1573219,14.1552953 22.8192437,14.227975 22.6547437,14.4810687 C22.4902437,14.734764 22.5623765,15.0733344 22.8154703,15.2378344 L24.3339781,16.22385 C24.5099078,16.3386937 24.6313687,16.5158812 24.6755562,16.7235844 C24.7199078,16.931889 24.6809156,17.1439125 24.5660719,17.3201156 C24.3284,17.687014 23.8355015,17.7922328 23.4686031,17.5535219 L22.9365484,17.2078969 C22.9346344,17.206639 22.9332672,17.2049437 22.9313531,17.2037406 L21.4141031,16.2189281 C21.350775,16.1775297 21.2819781,16.151225 21.211814,16.1388109 C21.0017594,16.101514 20.7807125,16.1898344 20.6573375,16.3796547 C20.6161578,16.4429828 20.5898531,16.5117797 20.577439,16.5817797 C20.5401969,16.791725 20.628189,17.0130453 20.818064,17.1364203 L22.3388687,18.1240765 C22.7025953,18.363225 22.8055172,18.8531156 22.5681734,19.2192484 C22.4538765,19.3955062 22.2760328,19.5172406 22.0677828,19.5615922 C21.860025,19.6043031 21.6474547,19.5669515 21.4712515,19.4521078 L20.9366265,19.1049515 C20.9356422,19.1042953 20.9349312,19.103475 20.9340015,19.1028187 L19.4167515,18.1180062 C19.1620172,17.9535062 18.8244859,18.025639 18.6599859,18.2787328 C18.4954859,18.5324281 18.5676187,18.8709984 18.8207125,19.0354984 L20.3406422,20.0224437 C20.705189,20.2613187 20.8083844,20.7518656 20.5708219,21.1177797 C20.3326578,21.4835844 19.8423844,21.5904437 19.4759781,21.3527719 L17.0572047,19.7628969 C17.291814,19.4921937 17.4460875,19.1601312 17.497275,18.7956937 C17.5672203,18.2979281 17.4401265,17.8039359 17.1391812,17.4044984 C16.8382359,17.004514 16.3981656,16.7460062 15.9001812,16.6760609 C15.826025,16.6659437 15.752689,16.6687875 15.6789703,16.6672015 C15.7002437,16.2429359 15.5874781,15.8099203 15.3124547,15.4451 C14.9671578,14.9864906 14.4500328,14.73985 13.9174859,14.7094437 C13.9521578,14.2683344 13.8398844,13.8139906 13.5532672,13.4338578 C12.929775,12.6055609 11.7495094,12.4410609 10.9227437,13.0637328 L9.63594686,14.0335062 L5.33324373,11.2127797 L9.84550936,4.26429529 C10.3525172,4.60319373 11.1715172,5.14591248 11.7702359,5.51937342 C12.1334703,5.74599842 12.60515,5.88982654 13.071689,5.98257654 L13.0277203,5.99810779 C12.0418687,6.34389685 11.5205875,7.42752967 11.8658844,8.41365467 C12.0327906,8.89003748 12.3764469,9.27350623 12.8338531,9.49351404 C13.2907125,9.71352185 13.8050484,9.74294373 14.2830172,9.57521717 L16.8200797,8.67801404 C17.6318609,8.52313904 19.6836812,9.91515467 20.45915,10.4428344 C20.5537047,10.5066547 20.6605094,10.537389 20.7662203,10.537389 C20.9413844,10.537389 21.1133765,10.4535531 21.2190875,10.2978578 C21.3888922,10.0482094 21.3237594,9.70799842 21.0743844,9.53813904 C19.0610094,8.1693656 17.6029859,7.37038123 16.5453297,7.61844373 C16.5260797,7.62298279 16.5068844,7.6286156 16.4881812,7.63528748 L13.9196187,8.5434281 C13.7190797,8.61392029 13.5019703,8.60139685 13.3078297,8.50793592 C13.1139625,8.41474842 12.968439,8.25265467 12.8982203,8.0521156 C12.75215,7.63501404 12.9727047,7.17651404 13.3911734,7.02995154 L15.9492906,6.12552967 C15.9494,6.12547498 15.9495094,6.12542029 15.949564,6.1253656 C15.9497281,6.12531092 15.9498922,6.12531092 15.9500562,6.12525623 L16.3490015,5.98104529 C17.6254078,5.51696717 18.7282359,5.11616248 20.5044859,5.41945935 C21.6956344,5.62300623 23.5009234,5.63744373 25.3640172,4.58722498 L30.5431422,12.5621937 C30.647814,12.7234672 30.823525,12.8110765 31.0024078,12.8110765 C31.1044,12.8110765 31.2074859,12.7827484 31.2998531,12.722975 L34.7509078,10.4818265 C34.87215,10.4028031 34.9575719,10.2786078 34.9880328,10.1368031 C35.0181109,9.99477967 34.9908765,9.84684998 34.9118531,9.72533435 Z M6.78782186,15.2907172 C6.52745467,14.9452015 6.5969078,14.4522484 6.93471248,14.197514 L7.38856405,13.8676937 L8.73343905,14.7492562 L7.88693123,15.4450453 C7.54114217,15.7056859 7.04873592,15.6357406 6.78782186,15.2907172 Z M16.2654937,18.0624984 C16.3907281,18.2285844 16.4436109,18.4352484 16.4142437,18.6435531 C16.38515,18.85235 16.2772515,19.0361 16.1111656,19.1610609 L16.1108922,19.1610609 L15.5955172,19.5498344 C15.250275,19.810475 14.7570484,19.740475 14.4964078,19.3955062 C14.3711734,19.2288734 14.3182906,19.0227562 14.3476578,18.8144515 C14.377025,18.6056547 14.48465,18.4219047 14.6510094,18.2969437 L15.1666578,17.9081703 C15.3031031,17.8056312 15.4662906,17.7511625 15.6358219,17.7511625 C15.6729547,17.7511625 15.7103062,17.7538422 15.7479859,17.7591469 C15.9565094,17.788514 16.1402594,17.8964125 16.2654937,18.0624984 Z M14.4389859,16.1030453 C14.6990797,16.4485609 14.6299,16.941514 14.2843844,17.2021547 L13.157275,18.0512875 C12.991189,18.1767953 12.7831578,18.2291312 12.5762203,18.2003109 C12.3676969,18.1709437 12.1836734,18.0630453 12.058439,17.8969594 C11.7980719,17.5514437 11.867525,17.0584906 12.2130406,16.7983969 L13.3398765,15.9487172 C13.4811344,15.8424594 13.6466734,15.7911625 13.8111734,15.7911625 C14.0493922,15.7911625 14.2849312,15.8990062 14.4389859,16.1030453 Z M11.5807437,13.9374203 C11.7220015,13.8311625 11.8875406,13.7798656 12.0520406,13.7798656 C12.2902047,13.7798656 12.5257437,13.887764 12.6797984,14.0917484 C12.8050328,14.2578344 12.8579156,14.4644984 12.8285484,14.6728031 C12.7991812,14.8816 12.6915562,15.06535 12.5254703,15.1903109 L12.5251969,15.1903109 L10.8653219,16.4416156 C10.5200797,16.7022562 10.0263062,16.6328031 9.76648592,16.2872875 C9.50688436,15.9427015 9.57546248,15.4520453 9.91824373,15.1908578 L9.93114998,15.1803031 L11.5807437,13.9374203 Z M3.83743123,11.5079828 L1.30332186,9.86232654 L6.86126717,1.30351404 L9.39537655,2.94922498 L3.83743123,11.5079828 Z M31.1627515,11.5074906 L25.6042594,2.94922498 L28.1383687,1.30351404 L33.696314,9.86232654 L31.1627515,11.5074906 Z" id="Shape"></path>
                    </g>
                </g>
            </g>
        </g>
    </g>
</svg>