<?xml version="1.0" encoding="UTF-8"?>
<svg width="141px" height="141px" viewBox="0 0 141 141" version="1.1" xmlns="http://www.w3.org/2000/svg" xmlns:xlink="http://www.w3.org/1999/xlink">
    <!-- Generator: sketchtool 63.1 (101010) - https://sketch.com -->
    <title>2043634C-E9F8-4DDE-9875-C33B2863DBE9</title>
    <desc>Created with sketchtool.</desc>
    <g id="Page-1" stroke="none" stroke-width="1" fill="none" fill-rule="evenodd">
        <g id="alice-care_web" transform="translate(-508.000000, -3089.000000)">
            <g id="Group-13" transform="translate(508.000000, 3089.000000)">
                <circle id="Oval" fill="#F47D20" cx="70.5" cy="70.5" r="70.5"></circle>
                <g id="Group-2" transform="translate(45.000000, 25.000000)" fill="#FFFFFF" fill-rule="nonzero">
                    <path d="M44.5535714,-6.39488462e-14 L6.96428571,-6.39488462e-14 C4.10714286,-6.39488462e-14 1.60714286,2.41071429 1.60714286,5.35714286 L1.60714286,12.0535714 C0.714285714,12.0535714 4.8316906e-13,12.7678571 4.8316906e-13,13.6607143 L4.8316906e-13,21.1607143 C4.8316906e-13,22.0535714 0.714285714,22.7678571 1.60714286,22.7678571 L1.60714286,25.1785714 C0.714285714,25.1785714 4.8316906e-13,25.8928571 4.8316906e-13,26.7857143 L4.8316906e-13,29.375 C4.8316906e-13,30.2678571 0.714285714,30.9821429 1.60714286,30.9821429 L1.60714286,82.5892857 C1.60714286,85.4464286 4.01785714,87.9464286 6.96428571,87.9464286 L21.3392857,87.9464286 C21.6071429,87.5892857 21.9642857,87.3214286 22.4107143,87.3214286 L29.0178571,87.3214286 C29.4642857,87.3214286 29.9107143,87.5892857 30.0892857,87.9464286 L44.4642857,87.9464286 C47.3214286,87.9464286 49.8214286,85.5357143 49.8214286,82.5892857 L49.8214286,5.35714286 C49.9107143,2.5 47.4107143,-6.39488462e-14 44.5535714,-6.39488462e-14 Z M47.1428571,82.5892857 C47.1428571,84.1071429 46.0714286,85.1785714 44.5535714,85.1785714 L6.96428571,85.1785714 C5.44642857,85.1785714 4.375,84.1071429 4.375,82.5892857 L4.375,5.35714286 C4.375,3.83928571 5.44642857,2.76785714 6.96428571,2.76785714 L12.2321429,2.76785714 L12.4107143,6.96428571 C12.4107143,7.85714286 13.125,8.48214286 13.9285714,8.48214286 L37.5,8.48214286 C38.3928571,8.48214286 39.0178571,7.76785714 39.0178571,6.96428571 L39.2857143,2.76785714 L44.5535714,2.76785714 C46.0714286,2.76785714 47.1428571,3.83928571 47.1428571,5.35714286 L47.1428571,82.5892857 L47.1428571,82.5892857 Z" id="Shape"></path>
                    <path d="M38.3035714,57.7678571 L13.6607143,57.7678571 C12.9464286,57.7678571 12.4107143,58.3035714 12.4107143,59.0178571 C12.4107143,59.7321429 12.9464286,60.2678571 13.6607143,60.2678571 L38.3928571,60.2678571 C39.1071429,60.2678571 39.6428571,59.7321429 39.6428571,59.0178571 C39.5535714,58.3035714 39.0178571,57.7678571 38.3035714,57.7678571 Z" id="Path"></path>
                    <path d="M25.1785714,54.0178571 C25.4464286,54.1964286 25.7142857,54.375 25.9821429,54.375 C26.25,54.375 26.6071429,54.2857143 26.7857143,54.0178571 L35.8035714,45.7142857 C36.0714286,45.4464286 36.1607143,45.1785714 36.1607143,44.8214286 C36.1607143,44.4642857 36.0714286,44.1964286 35.8035714,43.9285714 C35.5357143,43.6607143 35.2678571,43.5714286 34.9107143,43.5714286 C34.5535714,43.5714286 34.2857143,43.6607143 34.0178571,43.9285714 L27.1428571,50.2678571 L27.1428571,29.8214286 C27.1428571,29.1071429 26.6071429,28.5714286 25.8928571,28.5714286 C25.1785714,28.5714286 24.6428571,29.1071429 24.6428571,29.8214286 L24.6428571,50.2678571 L17.8571429,43.8392857 C17.5892857,43.5714286 17.3214286,43.4821429 16.9642857,43.4821429 C16.6071429,43.4821429 16.3392857,43.6607143 16.0714286,43.8392857 C15.8035714,44.1071429 15.7142857,44.375 15.7142857,44.7321429 C15.7142857,45.0892857 15.8928571,45.3571429 16.0714286,45.625 L25.1785714,54.0178571 Z" id="Path"></path>
                </g>
            </g>
        </g>
    </g>
</svg>